<?xml version="1.0" encoding="utf-8"?>
<!-- Generator: Adobe Illustrator 19.0.0, SVG Export Plug-In . SVG Version: 6.00 Build 0)  -->
<svg version="1.1" id="Layer_1" xmlns="http://www.w3.org/2000/svg" xmlns:xlink="http://www.w3.org/1999/xlink" x="0px" y="0px"
	 viewBox="0 0 96 96" style="enable-background:new 0 0 96 96;" xml:space="preserve">
<style type="text/css">
	.st0{fill:#F2CF61;}
	.st1{clip-path:url(#XMLID_24_);fill:#E78244;}
	.st2{clip-path:url(#XMLID_24_);fill:#D97A40;}
	.st3{clip-path:url(#XMLID_24_);fill:#F2D6CE;}
	.st4{clip-path:url(#XMLID_24_);fill:#E6CBC3;}
	.st5{clip-path:url(#XMLID_24_);fill:#91D2F2;}
	.st6{clip-path:url(#XMLID_24_);fill:#8AC7E6;}
	.st7{clip-path:url(#XMLID_24_);fill:#F5F5F5;}
	.st8{clip-path:url(#XMLID_24_);fill:#FFE1D9;}
	.st9{clip-path:url(#XMLID_24_);fill:#E6BAAD;}
	.st10{fill:#F5F5F5;}
	.st11{fill:#734822;}
</style>
<g id="XMLID_1_">
	<circle id="XMLID_3_" class="st0" cx="48" cy="48" r="32.5"/>
	<g id="XMLID_6_">
		<defs>
			<circle id="XMLID_5_" cx="48" cy="48" r="32.5"/>
		</defs>
		<clipPath id="XMLID_24_">
			<use xlink:href="#XMLID_5_"  style="overflow:visible;"/>
		</clipPath>
		<path id="XMLID_7_" class="st1" d="M65.1,49.2c0.2-1,0.3-2,0.3-3c0-0.1,0-0.2,0-0.3h0c0-9.3-7.8-14.2-17.5-14.2
			c-9.7,0-17.5,5-17.5,14.2c0,1.1,0.1,2.2,0.3,3.3c0.9,6.7,3.4,20,1,22.4c2.7,2.7,16.1,0,16.1,0s13.5,2.7,16.1,0
			C61.7,69.2,64.2,55.9,65.1,49.2z"/>
		<path id="XMLID_8_" class="st2" d="M65.5,46c0-9.3-7.8-14.2-17.5-14.2c-0.3,0-0.7,0-1,0C56.2,32.1,63.4,37,63.4,46h0
			c0,0.1,0,0.2,0,0.3c0,1-0.1,2-0.3,3c-0.9,6.7-3.4,20-1,22.4c-0.8,0.8-2.4,1.1-4.4,1.2c2.8,0.1,5.4-0.1,6.4-1.2
			c-2.4-2.4,0.1-15.7,1-22.4c0.2-1,0.3-2,0.3-3C65.5,46.2,65.5,46.1,65.5,46L65.5,46z"/>
		<path id="XMLID_9_" class="st2" d="M46,71.6c0,0-5.1,1-9.7,1.2c3.8,0.1,8.6-0.6,10.7-1C46.3,71.7,46,71.6,46,71.6z"/>
		<path id="XMLID_10_" class="st3" d="M52.1,61.2H48h-4.1c-1,1.5-3,6.1-3,7.1c2,0,5.2,2.5,7.1,2.5c1.9,0,5.1-2.5,7.1-2.5
			C55.1,67.3,53.1,62.7,52.1,61.2z"/>
		<path id="XMLID_11_" class="st4" d="M52.1,61.2h-1.5c1,1.5,3,6.1,3,7.1c-1.8,0-4.4,1.9-6.3,2.4c0.3,0.1,0.5,0.1,0.8,0.1
			c1.9,0,5.1-2.5,7.1-2.5C55.1,67.3,53.1,62.7,52.1,61.2z"/>
		<path id="XMLID_12_" class="st5" d="M64.8,73.1c0-2.5-4.9-4.7-11.8-5.4c-0.7-0.1-2.1,0.3-3,0.9c-1,0.9-1.5,1.5-2,2.2
			c-0.3-0.4-0.7-0.9-1.7-2c-0.8-0.6-2.3-1.2-2.9-1.2c-7,0.7-12.2,2.9-12.2,5.4v7.9h33.5V73.1z"/>
		<path id="XMLID_13_" class="st6" d="M44.3,69.2c1.1,1.1,2.3,2.6,2.6,3c0.2-0.3,0.8-1,1.1-1.3c-0.2-0.3-1.3-1.5-1.6-2
			c-0.8-0.6-2.3-1.2-2.9-1.2c-0.3,0-0.6,0.1-0.8,0.1C43.3,68,43.7,68.7,44.3,69.2z"/>
		<path id="XMLID_14_" class="st6" d="M53,67.7c-0.2,0-0.5,0-0.9,0.1c6.5,0.8,11.1,2.9,11.1,5.3v7.9h1.5v-7.9
			C64.8,70.6,59.8,68.5,53,67.7z"/>
		<path id="XMLID_15_" class="st7" d="M48,70.9l-1.5-1.5c0,0-1.6,0.6-2.3,1.7c-1.4-0.1-4-1.8-4.8-2.8c0.7-0.9,1.4-1.4,1.8-1.7
			c0.8,0.1,5.3,1.7,5.3,1.7L48,70.9z"/>
		<path id="XMLID_16_" class="st7" d="M48,70.9l1.5-1.5c0,0,1.6,0.6,2.3,1.7c1.4-0.1,4-1.8,4.8-2.8c-0.7-0.9-1.4-1.4-1.8-1.7
			c-0.8,0.1-5.3,1.7-5.3,1.7L48,70.9z"/>
		<path id="XMLID_17_" class="st8" d="M49.7,39.1c-0.6,9-16.2,6.8-16.2,12.7C35.2,59,41,64.3,48,64.3c8.2,0,14.9-7.4,15.1-16.5
			C55.3,46.8,50.7,40.5,49.7,39.1z"/>
		<path id="XMLID_18_" class="st3" d="M49.7,39.1c-0.6,9-16.2,6.8-16.2,12.7c0,0.1,0.1,0.2,0.1,0.3C34.7,47.1,49.7,48.9,49.7,39.1z"
			/>
		<path id="XMLID_19_" class="st3" d="M49.7,39.1c1.1,1.3,4.1,8.5,11.9,9.5c-0.1,8.8-6.4,15.2-14.3,15.7c0.2,0,0.5,0,0.7,0
			c8.2,0,14.9-7.4,15.1-16.5C55.3,46.8,50.7,40.5,49.7,39.1z"/>
		<path id="XMLID_20_" class="st9" d="M54.6,57.5c0.3,0.4-2.5,2.9-6.6,2.9s-6.9-2.5-6.6-2.9c0.3-0.4,3.1,1,6.6,1S54.3,57,54.6,57.5z
			"/>
	</g>
	<circle id="XMLID_4_" class="st10" cx="42.9" cy="50" r="2"/>
	<circle id="XMLID_21_" class="st11" cx="42.9" cy="50" r="1"/>
	<circle id="XMLID_22_" class="st10" cx="54.1" cy="50" r="2"/>
	<circle id="XMLID_23_" class="st11" cx="54.1" cy="50" r="1"/>
</g>
</svg>
