<svg width="159" height="24" viewBox="0 0 159 24" fill="none" xmlns="http://www.w3.org/2000/svg">
<path opacity="0.4" d="M17 4.5C14.9 4.5 13.05 5.55 12 7.2C10.95 5.55 9.1 4.5 7 4.5C3.7 4.5 1 7.2 1 10.5C1 16.45 12 22.5 12 22.5C12 22.5 23 16.5 23 10.5C23 7.2 20.3 4.5 17 4.5Z" fill="#1C1E21"/>
<g opacity="0.4">
<path d="M39.7098 15.8663C39.7098 15.2836 39.4963 14.838 39.0694 14.5296C38.6424 14.2142 37.8739 13.8852 36.7638 13.5424C35.6538 13.1928 34.775 12.85 34.1274 12.5141C32.3627 11.5955 31.4803 10.3582 31.4803 8.80206C31.4803 7.99314 31.7151 7.27335 32.1848 6.64267C32.6616 6.00514 33.3411 5.50814 34.2235 5.15167C35.113 4.7952 36.1092 4.61697 37.2121 4.61697C38.3222 4.61697 39.3113 4.81234 40.1795 5.20308C41.0476 5.58698 41.72 6.13196 42.1968 6.83805C42.6807 7.54413 42.9226 8.34619 42.9226 9.24422H39.7205C39.7205 8.5587 39.4963 8.02742 39.048 7.65039C38.5997 7.2665 37.97 7.07455 37.1588 7.07455C36.376 7.07455 35.7676 7.23565 35.3336 7.55784C34.8995 7.87318 34.6825 8.29135 34.6825 8.81234C34.6825 9.29906 34.9351 9.70694 35.4403 10.036C35.9526 10.365 36.7034 10.6735 37.6925 10.9614C39.5141 11.4893 40.8412 12.144 41.6738 12.9255C42.5063 13.7069 42.9226 14.6804 42.9226 15.8458C42.9226 17.1414 42.4138 18.1594 41.3963 18.8997C40.3787 19.6332 39.0089 20 37.2869 20C36.0914 20 35.0027 19.7909 34.0207 19.3728C33.0387 18.9477 32.288 18.3685 31.7685 17.635C31.2562 16.9015 31 16.0514 31 15.0848H34.2128C34.2128 16.7369 35.2375 17.563 37.2869 17.563C38.0483 17.563 38.6424 17.4156 39.0694 17.1208C39.4963 16.8192 39.7098 16.401 39.7098 15.8663Z" fill="#1C1E21"/>
<path d="M44.4169 14.1285C44.4169 13.0249 44.6375 12.0411 45.0787 11.1774C45.5199 10.3136 46.1532 9.64524 46.9787 9.17224C47.8112 8.69923 48.7754 8.46273 49.8712 8.46273C51.4296 8.46273 52.6998 8.92202 53.6818 9.84062C54.6709 10.7592 55.2224 12.0069 55.3362 13.5835L55.3576 14.3445C55.3576 16.0514 54.863 17.4225 53.8739 18.4576C52.8848 19.4859 51.5577 20 49.8926 20C48.2275 20 46.8968 19.4859 45.9006 18.4576C44.9115 17.4293 44.4169 16.0308 44.4169 14.2622V14.1285ZM47.5017 14.3445C47.5017 15.4002 47.708 16.2091 48.1207 16.7712C48.5335 17.3265 49.1241 17.6041 49.8926 17.6041C50.6398 17.6041 51.2233 17.3299 51.6431 16.7815C52.0629 16.2262 52.2728 15.3419 52.2728 14.1285C52.2728 13.0934 52.0629 12.2913 51.6431 11.7224C51.2233 11.1534 50.6326 10.8689 49.8712 10.8689C49.117 10.8689 48.5335 11.1534 48.1207 11.7224C47.708 12.2845 47.5017 13.1585 47.5017 14.3445Z" fill="#1C1E21"/>
<path d="M62.0607 17.6041C62.63 17.6041 63.0925 17.4533 63.4483 17.1517C63.8041 16.85 63.9891 16.449 64.0033 15.9486H66.8959C66.8888 16.7027 66.6753 17.395 66.2555 18.0257C65.8357 18.6495 65.2593 19.1362 64.5263 19.4859C63.8005 19.8286 62.9964 20 62.1141 20C60.4632 20 59.161 19.4961 58.2075 18.4884C57.2539 17.4739 56.7772 16.0754 56.7772 14.2931V14.0977C56.7772 12.3839 57.2504 11.0163 58.1968 9.99486C59.1432 8.97344 60.4418 8.46273 62.0927 8.46273C63.5372 8.46273 64.6936 8.86033 65.5617 9.65553C66.437 10.4439 66.8817 11.4961 66.8959 12.8123H64.0033C63.9891 12.2365 63.8041 11.7704 63.4483 11.4139C63.0925 11.0506 62.6229 10.8689 62.0394 10.8689C61.3207 10.8689 60.7763 11.1225 60.4063 11.6298C60.0434 12.1302 59.8619 12.946 59.8619 14.0771V14.3856C59.8619 15.5304 60.0434 16.353 60.4063 16.8535C60.7692 17.3539 61.3207 17.6041 62.0607 17.6041Z" fill="#1C1E21"/>
<path d="M71.9126 19.7943H68.8172V8.66838H71.9126V19.7943ZM68.6358 5.7892C68.6358 5.34362 68.7887 4.97686 69.0947 4.68895C69.4078 4.40103 69.8312 4.25707 70.3649 4.25707C70.8915 4.25707 71.3113 4.40103 71.6244 4.68895C71.9375 4.97686 72.0941 5.34362 72.0941 5.7892C72.0941 6.24165 71.934 6.61183 71.6137 6.89974C71.3006 7.18766 70.8844 7.33162 70.3649 7.33162C69.8455 7.33162 69.4256 7.18766 69.1054 6.89974C68.7923 6.61183 68.6358 6.24165 68.6358 5.7892Z" fill="#1C1E21"/>
<path d="M81.1561 19.7943C81.0138 19.527 80.9106 19.1945 80.8466 18.7969C80.0994 19.599 79.1281 20 77.9326 20C76.8012 20 75.8619 19.6847 75.1147 19.054C74.3747 18.4233 74.0047 17.6281 74.0047 16.6684C74.0047 15.4893 74.4565 14.5844 75.3602 13.9537C76.2711 13.3231 77.5839 13.0043 79.2989 12.9974H80.7185V12.3599C80.7185 11.8458 80.5797 11.4344 80.3022 11.126C80.0318 10.8175 79.6013 10.6632 79.0107 10.6632C78.4912 10.6632 78.0821 10.7832 77.7832 11.0231C77.4914 11.2631 77.3456 11.5921 77.3456 12.0103H74.2608C74.2608 11.3659 74.4672 10.7695 74.8799 10.2211C75.2926 9.67267 75.8761 9.24422 76.6304 8.93573C77.3847 8.62039 78.2315 8.46273 79.1708 8.46273C80.5939 8.46273 81.7218 8.80891 82.5544 9.50129C83.394 10.1868 83.8139 11.1534 83.8139 12.401V17.2237C83.821 18.2793 83.974 19.078 84.2728 19.6195V19.7943H81.1561ZM78.6051 17.7275C79.0605 17.7275 79.4803 17.6315 79.8646 17.4396C80.2488 17.2408 80.5335 16.9769 80.7185 16.6478V14.7352H79.5657C78.0216 14.7352 77.1997 15.2494 77.1001 16.2776L77.0894 16.4524C77.0894 16.8226 77.2246 17.1277 77.495 17.3676C77.7654 17.6075 78.1354 17.7275 78.6051 17.7275Z" fill="#1C1E21"/>
<path d="M89.439 19.7943H86.3436V4H89.439V19.7943Z" fill="#1C1E21"/>
<path d="M95.3949 17.3162H102.194V19.7943H92.1928V4.82262H95.3949V17.3162Z" fill="#1C1E21"/>
<path d="M110.53 19.7943C110.388 19.527 110.285 19.1945 110.221 18.7969C109.474 19.599 108.502 20 107.307 20C106.175 20 105.236 19.6847 104.489 19.054C103.749 18.4233 103.379 17.6281 103.379 16.6684C103.379 15.4893 103.831 14.5844 104.734 13.9537C105.645 13.3231 106.958 13.0043 108.673 12.9974H110.093V12.3599C110.093 11.8458 109.954 11.4344 109.676 11.126C109.406 10.8175 108.976 10.6632 108.385 10.6632C107.865 10.6632 107.456 10.7832 107.157 11.0231C106.866 11.2631 106.72 11.5921 106.72 12.0103H103.635C103.635 11.3659 103.841 10.7695 104.254 10.2211C104.667 9.67267 105.25 9.24422 106.005 8.93573C106.759 8.62039 107.606 8.46273 108.545 8.46273C109.968 8.46273 111.096 8.80891 111.929 9.50129C112.768 10.1868 113.188 11.1534 113.188 12.401V17.2237C113.195 18.2793 113.348 19.078 113.647 19.6195V19.7943H110.53ZM107.979 17.7275C108.435 17.7275 108.855 17.6315 109.239 17.4396C109.623 17.2408 109.908 16.9769 110.093 16.6478V14.7352H108.94C107.396 14.7352 106.574 15.2494 106.474 16.2776L106.464 16.4524C106.464 16.8226 106.599 17.1277 106.869 17.3676C107.14 17.6075 107.51 17.7275 107.979 17.7275Z" fill="#1C1E21"/>
<path d="M125.965 14.3342C125.965 16.1165 125.57 17.5081 124.78 18.509C123.99 19.503 122.887 20 121.471 20C120.219 20 119.219 19.5373 118.472 18.6118L118.333 19.7943H115.558V4H118.642V9.66581C119.354 8.86375 120.29 8.46273 121.45 8.46273C122.859 8.46273 123.962 8.96315 124.758 9.96401C125.563 10.958 125.965 12.3599 125.965 14.1697V14.3342ZM122.88 14.1183C122.88 12.994 122.695 12.1748 122.325 11.6607C121.955 11.1397 121.403 10.8792 120.67 10.8792C119.688 10.8792 119.012 11.2665 118.642 12.0411V16.4319C119.02 17.2134 119.703 17.6041 120.692 17.6041C121.688 17.6041 122.343 17.1311 122.656 16.1851C122.805 15.7326 122.88 15.0437 122.88 14.1183Z" fill="#1C1E21"/>
<path d="M127.395 14.1285C127.395 13.0249 127.616 12.0411 128.057 11.1774C128.498 10.3136 129.131 9.64524 129.957 9.17224C130.789 8.69923 131.753 8.46273 132.849 8.46273C134.408 8.46273 135.678 8.92202 136.66 9.84062C137.649 10.7592 138.2 12.0069 138.314 13.5835L138.336 14.3445C138.336 16.0514 137.841 17.4225 136.852 18.4576C135.863 19.4859 134.536 20 132.871 20C131.205 20 129.875 19.4859 128.879 18.4576C127.889 17.4293 127.395 16.0308 127.395 14.2622V14.1285ZM130.48 14.3445C130.48 15.4002 130.686 16.2091 131.099 16.7712C131.511 17.3265 132.102 17.6041 132.871 17.6041C133.618 17.6041 134.201 17.3299 134.621 16.7815C135.041 16.2262 135.251 15.3419 135.251 14.1285C135.251 13.0934 135.041 12.2913 134.621 11.7224C134.201 11.1534 133.611 10.8689 132.849 10.8689C132.095 10.8689 131.511 11.1534 131.099 11.7224C130.686 12.2845 130.48 13.1585 130.48 14.3445Z" fill="#1C1E21"/>
<path d="M147.152 18.6632C146.391 19.5544 145.338 20 143.993 20C142.755 20 141.808 19.6572 141.153 18.9717C140.506 18.2862 140.175 17.2819 140.161 15.9589V8.66838H143.245V15.856C143.245 17.0146 143.793 17.5938 144.889 17.5938C145.935 17.5938 146.654 17.2442 147.045 16.545V8.66838H150.141V19.7943H147.237L147.152 18.6632Z" fill="#1C1E21"/>
<path d="M158.957 11.455C158.537 11.4002 158.167 11.3728 157.847 11.3728C156.68 11.3728 155.915 11.7532 155.552 12.5141V19.7943H152.468V8.66838H155.382L155.467 9.99486C156.086 8.97344 156.944 8.46273 158.039 8.46273C158.381 8.46273 158.701 8.50728 159 8.5964L158.957 11.455Z" fill="#1C1E21"/>
</g>
</svg>
