<svg width="542" height="503" viewBox="0 0 542 503" fill="none" xmlns="http://www.w3.org/2000/svg">
<path opacity="0.3" d="M1.48242 218.292C-1.29376 192.153 5.16928 165.681 18.0605 144.545C18.9664 143.14 19.8906 141.73 20.8149 140.319C20.8149 140.319 20.8794 140.301 20.8912 140.229C30.0665 126.5 42.1491 115.714 56.0557 108.837C81.6304 96.4819 110.923 97.9723 138.32 91.7737C187.424 80.6819 228.687 45.5696 273.896 21.8718C319.105 -1.82601 376.628 -12.4543 417.652 22.5787C417.893 22.7679 418.125 22.9716 418.347 23.1888C431.422 34.5868 441.653 49.688 453.101 63.2829C455.094 65.6651 457.096 67.9646 459.154 70.2135C478.788 91.4578 503.589 106.338 520.487 130.409C537.44 154.715 544.773 185.817 540.639 215.889C536.845 242.331 524.428 265.66 512.279 288.238C511.484 289.691 510.726 291.133 509.94 292.583C499.505 311.968 489.061 331.37 478.608 350.79C472.851 361.427 467.112 372.139 460.962 382.501C452.81 396.265 444.1 409.529 433.918 421.356C409.2 450.316 380.342 456.195 349.575 471.905C314.044 490.069 277.379 507.556 236.904 501.432C213.314 497.89 190.99 486.588 169.072 475.455C165.521 473.638 161.981 471.864 158.439 470.045C138.386 459.857 118.388 449.653 98.4866 439.043C94.14 436.726 89.7446 434.331 85.5424 431.641C79.0073 427.466 72.91 422.548 68.1527 415.985C62.4372 408.145 59.0913 398.511 55.835 389.079C51.2601 375.802 46.6992 362.555 42.1524 349.338C39.4333 341.476 36.751 333.603 34.0426 325.784C27.8907 307.951 21.7503 290.137 15.6214 272.344C9.58785 254.735 3.47379 236.922 1.48242 218.292Z" fill="#FFD7F5"/>
</svg>
