<svg width="16" height="16" viewBox="0 0 16 16" fill="none" xmlns="http://www.w3.org/2000/svg">
<path d="M16 2.83282C15.4113 3.08714 14.7786 3.25901 14.1146 3.33634C14.7924 2.94059 15.3129 2.31391 15.5579 1.56723C14.9136 1.93971 14.2086 2.20214 13.4735 2.3432C12.8747 1.72175 12.0216 1.33337 11.0774 1.33337C9.26456 1.33337 7.79475 2.76512 7.79475 4.531C7.79475 4.78166 7.82381 5.02568 7.87975 5.25978C5.15162 5.12638 2.73287 3.85336 1.11381 1.91871C0.831312 2.39099 0.669438 2.94035 0.669438 3.52629C0.669438 4.63572 1.249 5.61443 2.12975 6.1879C1.60847 6.17199 1.09866 6.03484 0.642875 5.78789C0.642687 5.80128 0.642687 5.81468 0.642687 5.82813C0.642687 7.37745 1.77419 8.66989 3.27581 8.96366C2.79243 9.09172 2.28539 9.11046 1.79344 9.01845C2.21112 10.2889 3.42344 11.2133 4.85981 11.2392C3.73638 12.0968 2.32094 12.6081 0.783063 12.6081C0.518063 12.6081 0.256813 12.5929 0 12.5634C1.45269 13.4707 3.17813 14 5.03188 14C11.0698 14 14.3715 9.12744 14.3715 4.90184C14.3715 4.76315 14.3684 4.62525 14.362 4.48814C15.0046 4.03558 15.5593 3.47504 16 2.83282Z" fill="#55ACEE"/>
</svg>
