<svg width="16" height="16" viewBox="0 0 16 16" fill="none" xmlns="http://www.w3.org/2000/svg">
<path d="M15.6661 4.33287C15.575 4.01022 15.3964 3.71598 15.1482 3.4796C14.9 3.24322 14.5909 3.07299 14.2518 2.98595C13.0036 2.66663 8 2.66663 8 2.66663C8 2.66663 2.99643 2.66663 1.74821 2.98425C1.40897 3.07101 1.09969 3.24114 0.851439 3.47756C0.603191 3.71399 0.424713 4.00838 0.333929 4.33117C-6.81196e-08 5.52013 0 7.99996 0 7.99996C0 7.99996 -6.81196e-08 10.4798 0.333929 11.6671C0.517857 12.3227 1.06071 12.839 1.74821 13.014C2.99643 13.3333 8 13.3333 8 13.3333C8 13.3333 13.0036 13.3333 14.2518 13.014C14.9411 12.839 15.4821 12.3227 15.6661 11.6671C16 10.4798 16 7.99996 16 7.99996C16 7.99996 16 5.52013 15.6661 4.33287ZM6.41071 10.276V5.72395L10.5536 7.98297L6.41071 10.276Z" fill="#FF0000"/>
</svg>
