<svg width="181" height="22" viewBox="0 0 181 22" fill="none" xmlns="http://www.w3.org/2000/svg">
<path d="M16.4266 21L15.4466 18.228H8.08263L7.07463 21H0.410628L8.69863 1.372H15.3626L23.3426 21H16.4266ZM9.76263 13.58H13.8506L11.8346 7.84L9.76263 13.58ZM44.7578 8.176C43.6938 7.56 42.5085 7.01867 41.2018 6.552C39.8951 6.08533 38.8311 5.852 38.0098 5.852C37.2071 5.852 36.8058 6.14133 36.8058 6.72C36.8058 7.168 37.0578 7.51333 37.5618 7.756C38.0845 7.99867 38.9058 8.26933 40.0258 8.568C41.4258 8.96 42.5832 9.352 43.4978 9.744C44.4312 10.136 45.2432 10.7613 45.9338 11.62C46.6245 12.46 46.9698 13.5707 46.9698 14.952C46.9698 16.3707 46.5965 17.5653 45.8498 18.536C45.1218 19.488 44.1325 20.1973 42.8818 20.664C41.6311 21.1307 40.2405 21.364 38.7098 21.364C36.9738 21.364 35.2191 21.084 33.4458 20.524C31.6911 19.9453 30.1698 19.1613 28.8818 18.172L31.2898 13.272C32.2791 14.1307 33.5205 14.868 35.0138 15.484C36.5071 16.0813 37.7578 16.38 38.7658 16.38C39.2512 16.38 39.6338 16.296 39.9138 16.128C40.1938 15.9413 40.3338 15.6613 40.3338 15.288C40.3338 14.84 40.0631 14.4947 39.5218 14.252C38.9991 13.9907 38.1685 13.72 37.0298 13.44C35.6485 13.0853 34.4911 12.7213 33.5578 12.348C32.6431 11.956 31.8498 11.3587 31.1778 10.556C30.5058 9.75333 30.1698 8.68 30.1698 7.336C30.1698 6.02933 30.5151 4.89067 31.2058 3.92C31.8965 2.93067 32.8765 2.17467 34.1458 1.652C35.4151 1.12933 36.8898 0.867999 38.5698 0.867999C40.1005 0.867999 41.6218 1.08267 43.1338 1.512C44.6645 1.94133 45.9898 2.51067 47.1098 3.22L44.7578 8.176ZM68.5876 21L67.6076 18.228H60.2436L59.2356 21H52.5716L60.8596 1.372H67.5236L75.5036 21H68.5876ZM61.9236 13.58H66.0116L63.9956 7.84L61.9236 13.58ZM91.4308 1.372C93.9881 1.372 95.9668 1.988 97.3668 3.22C98.7668 4.43333 99.4668 6.16 99.4668 8.4C99.4668 10.7707 98.7668 12.6187 97.3668 13.944C95.9668 15.2507 93.9881 15.904 91.4308 15.904H88.7148V21H82.2188V1.372H91.4308ZM91.0948 10.976C91.8041 10.976 92.3454 10.7707 92.7188 10.36C93.1108 9.93067 93.3068 9.34267 93.3068 8.596C93.3068 7.868 93.1108 7.308 92.7188 6.916C92.3454 6.50533 91.8041 6.3 91.0948 6.3H88.7148V10.976H91.0948ZM118.22 1.372H124.716V15.596H132.892V21H118.22V1.372ZM140.171 1.372H146.667V15.596H154.843V21H140.171V1.372ZM176.319 9.044C175.74 8.24133 175.04 7.59733 174.219 7.112C173.416 6.608 172.632 6.356 171.867 6.356C171.101 6.356 170.401 6.56133 169.767 6.972C169.151 7.364 168.665 7.91467 168.311 8.624C167.975 9.33333 167.807 10.136 167.807 11.032C167.807 11.928 167.975 12.74 168.311 13.468C168.665 14.1773 169.151 14.7373 169.767 15.148C170.401 15.5587 171.101 15.764 171.867 15.764C172.576 15.764 173.332 15.5587 174.135 15.148C174.956 14.7187 175.684 14.1587 176.319 13.468L180.071 17.472C178.969 18.6853 177.644 19.656 176.095 20.384C174.564 21.0933 173.043 21.448 171.531 21.448C169.552 21.448 167.769 21.0093 166.183 20.132C164.615 19.236 163.383 18.004 162.487 16.436C161.591 14.8493 161.143 13.076 161.143 11.116C161.143 9.17467 161.6 7.43867 162.515 5.908C163.429 4.35867 164.689 3.14533 166.295 2.268C167.919 1.39067 169.748 0.951999 171.783 0.951999C173.276 0.951999 174.779 1.288 176.291 1.96C177.803 2.61333 179.063 3.49067 180.071 4.592L176.319 9.044Z" fill="url(#paint0_linear)"/>
<defs>
<linearGradient id="paint0_linear" x1="180" y1="28" x2="73.8297" y2="-79.1528" gradientUnits="userSpaceOnUse">
<stop stop-color="#BD319E"/>
<stop offset="1" stop-color="#EF6C72"/>
</linearGradient>
</defs>
</svg>
