<svg width="24" height="20" viewBox="0 0 24 20" fill="none" xmlns="http://www.w3.org/2000/svg">
<path d="M21.857 19.4286C22.3965 19.4286 22.8639 19.2505 23.2613 18.8988L16.4617 12.0989C16.2986 12.2158 16.1405 12.3294 15.9911 12.4374C15.4822 12.8123 15.0693 13.1048 14.7521 13.3145C14.435 13.5246 14.0132 13.7387 13.4865 13.9574C12.9596 14.1763 12.4686 14.2854 12.0132 14.2854H11.9999H11.9865C11.5311 14.2854 11.0401 14.1763 10.5132 13.9574C9.98624 13.7387 9.56437 13.5246 9.24759 13.3145C8.9305 13.1048 8.51773 12.8123 8.00862 12.4374C7.86675 12.3334 7.7094 12.2192 7.53929 12.0971L0.738403 18.8988C1.13575 19.2505 1.60351 19.4286 2.14295 19.4286H21.857Z" fill="#EB7485"/>
<path d="M1.35282 7.81706C0.844016 7.47784 0.392814 7.08934 0 6.65173V16.9971L5.99313 11.004C4.79416 10.167 3.24935 9.10587 1.35282 7.81706Z" fill="#EB7485"/>
<path d="M22.6607 7.81706C20.8366 9.05176 19.2861 10.1147 18.0093 11.0064L24 16.9974V6.65173C23.6159 7.08054 23.1696 7.46878 22.6607 7.81706Z" fill="#EB7485"/>
<path d="M21.8569 0.571411H2.14291C1.45515 0.571411 0.926387 0.803657 0.555969 1.26767C0.185247 1.7319 0.000190735 2.31247 0.000190735 3.00873C0.000190735 3.57113 0.24577 4.18051 0.736712 4.83703C1.22765 5.49329 1.75005 6.00876 2.30365 6.38371C2.60714 6.59813 3.52236 7.23439 5.0493 8.29227C5.87358 8.86347 6.5904 9.36134 7.2064 9.79097C7.73146 10.1568 8.18427 10.4736 8.55813 10.7366C8.60105 10.7667 8.66855 10.8149 8.75814 10.879C8.85465 10.9483 8.97679 11.0363 9.12746 11.1451C9.41762 11.355 9.65867 11.5246 9.85065 11.6542C10.0424 11.7838 10.2747 11.9286 10.5472 12.0894C10.8195 12.2499 11.0763 12.3707 11.3173 12.451C11.5584 12.5313 11.7816 12.5715 11.9869 12.5715H12.0003H12.0136C12.2189 12.5715 12.4421 12.5313 12.6832 12.451C12.9242 12.3707 13.1808 12.2502 13.4533 12.0894C13.7256 11.9286 13.9576 11.7835 14.1499 11.6542C14.3419 11.5246 14.5829 11.355 14.8731 11.1451C15.0235 11.0363 15.1456 10.9483 15.2422 10.8792C15.3318 10.8149 15.3992 10.7669 15.4424 10.7366C15.7337 10.5339 16.1875 10.2184 16.7977 9.79468C17.9081 9.02321 19.5433 7.88773 21.7103 6.38371C22.362 5.9285 22.9065 5.37917 23.3441 4.7365C23.7809 4.09384 23.9999 3.41972 23.9999 2.71435C23.9999 2.12502 23.7876 1.62075 23.3638 1.20074C22.9396 0.781261 22.4373 0.571411 21.8569 0.571411Z" fill="#EB7485"/>
</svg>
