<svg width="517" height="510" viewBox="0 0 517 510" fill="none" xmlns="http://www.w3.org/2000/svg">
<path opacity="0.3" d="M515.722 381.607C512.241 409.963 500 435.855 482.96 454.17C481.781 455.373 480.584 456.575 479.387 457.778C479.387 457.778 479.322 457.778 479.294 457.85C467.472 469.502 453.603 477.171 438.931 480.17C412.016 485.377 384.832 474.878 357.638 473.05C308.904 469.755 261.942 494.132 213.931 505.291C165.92 516.451 109.38 510.102 78.985 460.724C78.803 460.452 78.6326 460.167 78.4745 459.87C68.8408 443.888 62.7432 424.875 55.1513 407.077C53.8334 403.963 52.4877 400.932 51.0769 397.938C37.5731 369.593 17.7302 346.371 7.45616 315.886C-2.81466 285.136 -2.46008 250.166 8.43067 219.777C18.1572 193.104 35.2621 172.335 51.9401 152.276C53.026 150.989 54.0747 149.703 55.1513 148.416C69.475 131.195 83.8111 113.958 98.1595 96.7053C106.048 87.2651 113.937 77.7407 122.132 68.7094C133 56.7077 144.277 45.4036 156.602 36.0596C186.58 13.1145 215.072 15.7241 247.649 8.56877C285.274 0.283045 323.809 -6.94442 360.422 11.8398C381.769 22.7591 400.117 41.4591 418.123 59.8585C421.037 62.8529 423.951 65.7992 426.856 68.7936C443.33 85.6296 459.748 102.466 475.98 119.699C479.526 123.463 483.099 127.323 486.422 131.436C491.591 137.821 496.176 144.856 499.118 153.214C502.663 163.208 503.564 174.367 504.427 185.287C505.633 200.656 506.834 215.988 508.028 231.285C508.752 240.389 509.439 249.492 510.162 258.548C511.79 279.192 513.411 299.812 515.026 320.408C516.594 340.779 518.19 361.392 515.722 381.607Z" fill="#FFD7F5"/>
</svg>
