<svg width="168" height="473" viewBox="0 0 168 473" fill="none" xmlns="http://www.w3.org/2000/svg">
<path opacity="0.3" d="M112.611 82.744C136.253 97.4459 153.703 118.262 162.221 139.821C162.753 141.285 163.277 142.765 163.8 144.244C163.8 144.244 163.77 144.297 163.822 144.35C168.794 158.867 169.287 173.386 165.258 186.606C157.606 210.735 135.857 228.513 121.818 249.925C96.6423 288.292 96.8959 336.79 84.9115 380.614C72.9271 424.438 41.4706 467.892 -16.337 472.023C-16.6625 472.057 -16.9939 472.077 -17.3297 472.082C-35.9471 473.252 -55.6469 470.271 -74.9481 469.016C-78.3209 468.788 -81.6315 468.618 -84.9397 468.515C-116.323 467.67 -146.042 474.137 -177.856 469.762C-209.904 465.274 -240.857 450.354 -262.925 428.758C-282.218 409.666 -292.889 387.028 -303.124 365.034C-303.774 363.61 -304.44 362.217 -305.093 360.8C-313.878 341.914 -322.671 323.011 -331.473 304.091C-336.271 293.708 -341.145 283.289 -345.44 272.827C-351.158 258.943 -356.069 245.017 -358.757 231.056C-365.489 197.008 -350.162 174.863 -341.66 145.302C-331.858 111.15 -320.7 76.6998 -287.275 54.6984C-267.816 41.8579 -242.803 34.7172 -218.214 27.7309C-214.219 26.607 -210.268 25.463 -206.277 24.3466C-183.778 17.9551 -161.304 11.6091 -138.562 5.58044C-133.595 4.26382 -128.529 2.96471 -123.353 1.97565C-115.312 0.431231 -106.96 -0.364681 -98.1807 0.732617C-87.6708 2.02214 -77.3303 5.95694 -67.2208 9.82133C-52.9956 15.2672 -38.8053 20.703 -24.6499 26.1288C-16.2196 29.347 -7.80618 32.5955 0.58131 35.7936C19.6923 43.1034 38.7791 50.4081 57.8416 57.7079C76.6833 64.9515 95.7516 72.2731 112.611 82.744Z" fill="#FFD7F5"/>
</svg>
