<svg width="175" height="491" viewBox="0 0 175 491" fill="none" xmlns="http://www.w3.org/2000/svg">
<path opacity="0.3" d="M241.902 487.904C213.992 493.5 185.508 490.769 162.584 481.59C161.059 480.935 159.528 480.264 157.997 479.594C157.997 479.594 157.975 479.538 157.898 479.536C142.988 472.847 131.16 463.179 123.473 451.399C109.648 429.7 110.554 403.003 103.276 378.929C90.2494 335.778 51.6995 302.558 25.2733 264.421C-1.15299 226.283 -13.8813 175.455 22.6479 134.181C22.8448 133.941 23.0573 133.707 23.2846 133.48C35.1757 120.298 51.0972 109.254 65.3779 97.2869C67.8806 95.2018 70.2946 93.1182 72.653 90.9893C94.928 70.708 110.27 46.4987 135.634 28.3612C161.249 10.1462 194.365 -0.159688 226.646 0.0372329C255.035 0.355086 280.295 8.84642 304.745 17.1838C306.319 17.7325 307.88 18.2491 309.451 18.7897C330.443 25.9522 351.454 33.1205 372.484 40.2947C384.004 44.2529 395.603 48.1855 406.838 52.5327C421.761 58.2903 436.162 64.6128 449.059 72.4371C480.635 91.4016 487.607 116.837 505.144 142.841C525.42 172.868 544.998 204.004 539.396 241.371C536.16 263.147 524.589 284.692 513.189 305.848C511.328 309.278 509.513 312.692 507.649 316.113C497.217 335.471 486.767 354.78 475.88 374.049C473.502 378.258 471.043 382.52 468.262 386.642C463.948 393.051 458.828 399.151 451.915 404.232C443.659 410.331 433.427 414.497 423.409 418.557C409.307 424.265 395.236 429.956 381.198 435.631C372.847 439.02 364.485 442.376 356.18 445.751C337.239 453.423 318.318 461.083 299.418 468.73C280.715 476.269 261.794 483.905 241.902 487.904Z" fill="#FFD7F5"/>
</svg>
