<svg width="24" height="25" viewBox="0 0 24 25" fill="none" xmlns="http://www.w3.org/2000/svg">
<path d="M19.7029 15.102H16.8931L18.0887 13.3756C20.3467 10.3658 20.0199 5.41847 17.3899 2.78886C15.9691 1.36772 14.0795 0.584961 12.0694 0.584961C10.0598 0.584961 8.17015 1.36772 6.74902 2.78886C4.11902 5.41847 3.79218 10.3662 6.0412 13.3638L7.24497 15.1024H4.29715L0 24.1263H24L19.7029 15.102ZM12.1389 5.29291C13.653 5.29291 14.8854 6.52532 14.8854 8.03945C14.8854 9.55357 13.653 10.786 12.1389 10.786C10.6248 10.786 9.39236 9.55357 9.39236 8.03945C9.39236 6.52532 10.6244 5.29291 12.1389 5.29291ZM4.79309 15.8867H7.78839L12.0694 22.0691L16.3501 15.8867H19.2069L22.757 23.3416H1.243L4.79309 15.8867Z" fill="#EB7485"/>
</svg>
